<svg width="953" height="975" viewBox="0 0 953 975" fill="none" xmlns="http://www.w3.org/2000/svg">
    <rect width="953" height="975" fill="white"/>
    <path d="M257.381 777.504L184.991 705.114L208.657 681.448C216.513 673.592 224.037 669.316 231.229 668.62C238.455 667.891 245.25 670.708 251.614 677.072C254.995 680.453 257.033 684.414 257.729 688.955C258.392 693.463 257.779 698.087 255.89 702.827C260.895 700.009 266.065 699.015 271.402 699.843C276.738 700.606 281.528 703.108 285.77 707.351C292.267 713.848 295.267 721.057 294.769 728.979C294.272 736.9 290.179 744.706 282.489 752.396L257.381 777.504ZM233.069 734.1L259.121 760.152L274.882 744.391C279.324 739.95 281.677 735.309 281.942 730.47C282.207 725.565 280.318 721.09 276.274 717.046C267.557 708.329 258.458 708.71 248.979 718.19L233.069 734.1ZM225.412 726.443L239.831 712.025C244.007 707.848 246.294 703.473 246.692 698.899C247.123 694.292 245.548 690.198 241.969 686.618C237.991 682.641 233.947 680.917 229.837 681.448C225.694 681.945 221.252 684.563 216.513 689.303L202.393 703.423L225.412 726.443ZM342.648 624.52C349.742 631.613 354.747 639.005 357.663 646.694C360.547 654.351 361.193 661.759 359.602 668.919C358.011 676.078 354.299 682.575 348.465 688.408C342.764 694.109 336.318 697.772 329.125 699.396C321.899 700.987 314.475 700.424 306.851 697.706C299.228 694.921 291.969 690.148 285.074 683.387L279.854 678.166C272.893 671.206 267.955 663.847 265.038 656.091C262.121 648.335 261.458 640.844 263.049 633.619C264.64 626.326 268.286 619.83 273.987 614.129C279.788 608.328 286.301 604.633 293.527 603.042C300.752 601.384 308.227 602.031 315.95 604.981C323.639 607.898 331.014 612.886 338.074 619.946L342.648 624.52ZM328.479 629.343C319.894 620.758 311.591 615.902 303.57 614.775C295.515 613.615 288.389 616.134 282.191 622.332C276.158 628.365 273.705 635.425 274.832 643.512C275.959 651.534 280.55 659.671 288.604 667.924L293.924 673.244C302.244 681.564 310.53 686.37 318.783 687.662C327.037 688.889 334.229 686.436 340.361 680.304C346.526 674.139 349.062 667.129 347.968 659.273C346.841 651.385 342.135 643.198 333.848 634.712L328.479 629.343ZM388.091 588.226L371.087 605.229L400.371 634.513L390.776 644.109L318.386 571.719L342.35 547.755C350.504 539.601 358.625 535.193 366.712 534.53C374.833 533.834 382.44 537.032 389.533 544.125C394.041 548.633 396.742 553.787 397.637 559.588C398.565 565.355 397.687 571.238 395.002 577.238L442.732 590.96L443.328 591.557L433.086 601.799L388.091 588.226ZM363.282 597.423L377.948 582.757C382.688 578.017 385.224 573.028 385.555 567.791C385.92 562.521 384.047 557.831 379.937 553.721C375.463 549.246 370.69 547.158 365.618 547.456C360.58 547.722 355.525 550.357 350.454 555.362L335.837 569.979L363.282 597.423ZM450.836 525.481L433.832 542.485L463.116 571.769L453.52 581.364L381.13 508.974L405.095 485.01C413.249 476.856 421.369 472.448 429.457 471.785C437.577 471.089 445.184 474.287 452.278 481.381C456.785 485.888 459.487 491.043 460.382 496.843C461.31 502.61 460.431 508.494 457.747 514.493L505.476 528.215L506.073 528.812L495.831 539.054L450.836 525.481ZM426.026 534.679L440.693 520.012C445.433 515.272 447.969 510.284 448.3 505.047C448.665 499.776 446.792 495.086 442.682 490.976C438.207 486.502 433.434 484.413 428.363 484.712C423.325 484.977 418.27 487.612 413.199 492.617L398.582 507.234L426.026 534.679ZM537.395 459.703L507.067 490.032L519.149 515.736L509.305 525.58L464.558 425.547L472.911 417.194L572.994 461.891L563.199 471.686L537.395 459.703ZM502.095 479.292L526.706 454.682L480.518 433.154L502.095 479.292ZM582.739 452.146L510.349 379.756L530.783 359.322C537.081 353.024 544.041 348.848 551.665 346.793C559.288 344.738 566.978 344.97 574.734 347.489C582.523 349.975 589.766 354.532 596.461 361.161L601.085 365.785C607.913 372.613 612.57 379.922 615.056 387.711C617.575 395.467 617.757 403.174 615.603 410.83C613.481 418.454 609.206 425.547 602.775 432.11L582.739 452.146ZM527.75 378.066L584.479 434.794L594.522 424.751C601.88 417.393 605.311 409.388 604.814 400.737C604.35 392.053 599.892 383.485 591.439 375.033L587.213 370.807C578.993 362.587 570.674 358.145 562.255 357.482C553.836 356.753 546.047 359.902 538.887 366.929L527.75 378.066ZM671.387 295.782C678.48 302.875 683.485 310.266 686.402 317.956C689.285 325.613 689.932 333.021 688.341 340.18C686.75 347.34 683.037 353.836 677.204 359.67C671.503 365.371 665.056 369.034 657.863 370.658C650.638 372.249 643.213 371.685 635.589 368.967C627.966 366.183 620.707 361.41 613.813 354.648L608.592 349.428C601.632 342.467 596.693 335.109 593.776 327.353C590.859 319.597 590.196 312.106 591.787 304.88C593.378 297.588 597.024 291.092 602.726 285.391C608.526 279.59 615.039 275.894 622.265 274.303C629.491 272.646 636.965 273.292 644.688 276.242C652.378 279.159 659.753 284.148 666.813 291.208L671.387 295.782ZM657.217 300.604C648.632 292.02 640.329 287.164 632.308 286.037C624.254 284.877 617.127 287.396 610.929 293.594C604.897 299.627 602.444 306.687 603.571 314.774C604.698 322.795 609.288 330.933 617.343 339.186L622.663 344.506C630.982 352.825 639.269 357.631 647.522 358.924C655.775 360.151 662.968 357.698 669.1 351.566C675.265 345.401 677.8 338.39 676.707 330.535C675.58 322.646 670.873 314.459 662.587 305.974L657.217 300.604ZM716.829 259.487L699.826 276.491L729.11 305.775L719.514 315.371L647.124 242.981L671.088 219.016C679.242 210.863 687.363 206.454 695.45 205.791C703.571 205.095 711.178 208.294 718.271 215.387C722.779 219.895 725.48 225.049 726.375 230.849C727.303 236.617 726.425 242.5 723.74 248.499L771.47 262.222L772.067 262.818L761.825 273.06L716.829 259.487ZM692.02 268.685L706.687 254.018C711.427 249.278 713.962 244.29 714.294 239.053C714.658 233.783 712.786 229.093 708.676 224.983C704.201 220.508 699.428 218.42 694.357 218.718C689.318 218.983 684.264 221.618 679.193 226.623L664.575 241.241L692.02 268.685Z"
          fill="#E5E5E5"/>
</svg>

